<svg version="1.2" width="210mm" height="297mm" viewBox="0 0 21000 29700" preserveAspectRatio="xMidYMid" fill-rule="evenodd" stroke-width="28.222" stroke-linejoin="round" xmlns="http://www.w3.org/2000/svg" xmlns:ooo="http://xml.openoffice.org/svg/export" xmlns:xlink="http://www.w3.org/1999/xlink" xmlns:presentation="http://sun.com/xmlns/staroffice/presentation" xmlns:smil="http://www.w3.org/2001/SMIL20/" xmlns:anim="urn:oasis:names:tc:opendocument:xmlns:animation:1.0" xml:space="preserve">
 <defs class="ClipPathGroup">
  <clipPath id="presentation_clip_path" clipPathUnits="userSpaceOnUse">
   <rect x="0" y="0" width="21000" height="29700"/>
  </clipPath>
 </defs>
 <defs class="TextShapeIndex">
  <g ooo:slide="id1" ooo:id-list="id3 id4 id5 id6 id7 id8 id9 id10 id11 id12 id13 id14 id15 id16 id17"/>
 </defs>
 <defs class="EmbeddedBulletChars">
  <g id="bullet-char-template(57356)" transform="scale(0.00048828125,-0.00048828125)">
   <path d="M 580,1141 L 1163,571 580,0 -4,571 580,1141 Z"/>
  </g>
  <g id="bullet-char-template(57354)" transform="scale(0.00048828125,-0.00048828125)">
   <path d="M 8,1128 L 1137,1128 1137,0 8,0 8,1128 Z"/>
  </g>
  <g id="bullet-char-template(10146)" transform="scale(0.00048828125,-0.00048828125)">
   <path d="M 174,0 L 602,739 174,1481 1456,739 174,0 Z M 1358,739 L 309,1346 659,739 1358,739 Z"/>
  </g>
  <g id="bullet-char-template(10132)" transform="scale(0.00048828125,-0.00048828125)">
   <path d="M 2015,739 L 1276,0 717,0 1260,543 174,543 174,936 1260,936 717,1481 1274,1481 2015,739 Z"/>
  </g>
  <g id="bullet-char-template(10007)" transform="scale(0.00048828125,-0.00048828125)">
   <path d="M 0,-2 C -7,14 -16,27 -25,37 L 356,567 C 262,823 215,952 215,954 215,979 228,992 255,992 264,992 276,990 289,987 310,991 331,999 354,1012 L 381,999 492,748 772,1049 836,1024 860,1049 C 881,1039 901,1025 922,1006 886,937 835,863 770,784 769,783 710,716 594,584 L 774,223 C 774,196 753,168 711,139 L 727,119 C 717,90 699,76 672,76 641,76 570,178 457,381 L 164,-76 C 142,-110 111,-127 72,-127 30,-127 9,-110 8,-76 1,-67 -2,-52 -2,-32 -2,-23 -1,-13 0,-2 Z"/>
  </g>
  <g id="bullet-char-template(10004)" transform="scale(0.00048828125,-0.00048828125)">
   <path d="M 285,-33 C 182,-33 111,30 74,156 52,228 41,333 41,471 41,549 55,616 82,672 116,743 169,778 240,778 293,778 328,747 346,684 L 369,508 C 377,444 397,411 428,410 L 1163,1116 C 1174,1127 1196,1133 1229,1133 1271,1133 1292,1118 1292,1087 L 1292,965 C 1292,929 1282,901 1262,881 L 442,47 C 390,-6 338,-33 285,-33 Z"/>
  </g>
  <g id="bullet-char-template(9679)" transform="scale(0.00048828125,-0.00048828125)">
   <path d="M 813,0 C 632,0 489,54 383,161 276,268 223,411 223,592 223,773 276,916 383,1023 489,1130 632,1184 813,1184 992,1184 1136,1130 1245,1023 1353,916 1407,772 1407,592 1407,412 1353,268 1245,161 1136,54 992,0 813,0 Z"/>
  </g>
  <g id="bullet-char-template(8226)" transform="scale(0.00048828125,-0.00048828125)">
   <path d="M 346,457 C 273,457 209,483 155,535 101,586 74,649 74,723 74,796 101,859 155,911 209,963 273,989 346,989 419,989 480,963 531,910 582,859 608,796 608,723 608,648 583,586 532,535 482,483 420,457 346,457 Z"/>
  </g>
  <g id="bullet-char-template(8211)" transform="scale(0.00048828125,-0.00048828125)">
   <path d="M -4,459 L 1135,459 1135,606 -4,606 -4,459 Z"/>
  </g>
 </defs>
 <defs class="TextEmbeddedBitmaps"/>
 <g>
  <g id="id2" class="Master_Slide">
   <g id="bg-id2" class="Background"/>
   <g id="bo-id2" class="BackgroundObjects"/>
  </g>
 </g>
 <g class="SlideGroup">
  <g>
   <g id="id1" class="Slide" clip-path="url(#presentation_clip_path)">
    <g class="Page">
     <g class="com.sun.star.drawing.CustomShape">
      <g id="id3">
       <rect class="BoundingBox" stroke="none" fill="none" x="8364" y="13317" width="893" height="893"/>
       <path fill="rgb(75,179,204)" stroke="none" d="M 8809,13318 C 9061,13318 9253,13510 9253,13762 9253,14014 9061,14206 8809,14206 8557,14206 8365,14014 8365,13762 8365,13510 8557,13318 8809,13318 Z M 8365,13318 L 8365,13318 Z M 9255,14208 L 9255,14208 Z"/>
       <path fill="none" stroke="rgb(75,179,204)" d="M 8809,13318 C 9061,13318 9253,13510 9253,13762 9253,14014 9061,14206 8809,14206 8557,14206 8365,14014 8365,13762 8365,13510 8557,13318 8809,13318 Z"/>
       <path fill="none" stroke="rgb(75,179,204)" d="M 8365,13318 L 8365,13318 Z"/>
       <path fill="none" stroke="rgb(75,179,204)" d="M 9255,14208 L 9255,14208 Z"/>
      </g>
     </g>
     <g class="com.sun.star.drawing.CustomShape">
      <g id="id4">
       <rect class="BoundingBox" stroke="none" fill="none" x="11920" y="13444" width="893" height="893"/>
       <path fill="rgb(75,179,204)" stroke="none" d="M 12365,13445 C 12617,13445 12809,13637 12809,13889 12809,14141 12617,14333 12365,14333 12113,14333 11921,14141 11921,13889 11921,13637 12113,13445 12365,13445 Z M 11921,13445 L 11921,13445 Z M 12811,14335 L 12811,14335 Z"/>
       <path fill="none" stroke="rgb(75,179,204)" d="M 12365,13445 C 12617,13445 12809,13637 12809,13889 12809,14141 12617,14333 12365,14333 12113,14333 11921,14141 11921,13889 11921,13637 12113,13445 12365,13445 Z"/>
       <path fill="none" stroke="rgb(75,179,204)" d="M 11921,13445 L 11921,13445 Z"/>
       <path fill="none" stroke="rgb(75,179,204)" d="M 12811,14335 L 12811,14335 Z"/>
      </g>
     </g>
     <g class="com.sun.star.drawing.CustomShape">
      <g id="id5">
       <rect class="BoundingBox" stroke="none" fill="none" x="11158" y="15222" width="893" height="893"/>
       <path fill="rgb(75,179,204)" stroke="none" d="M 11603,15223 C 11855,15223 12047,15415 12047,15667 12047,15919 11855,16111 11603,16111 11351,16111 11159,15919 11159,15667 11159,15415 11351,15223 11603,15223 Z M 11159,15223 L 11159,15223 Z M 12049,16113 L 12049,16113 Z"/>
       <path fill="none" stroke="rgb(75,179,204)" d="M 11603,15223 C 11855,15223 12047,15415 12047,15667 12047,15919 11855,16111 11603,16111 11351,16111 11159,15919 11159,15667 11159,15415 11351,15223 11603,15223 Z"/>
       <path fill="none" stroke="rgb(75,179,204)" d="M 11159,15223 L 11159,15223 Z"/>
       <path fill="none" stroke="rgb(75,179,204)" d="M 12049,16113 L 12049,16113 Z"/>
      </g>
     </g>
     <g class="com.sun.star.drawing.LineShape">
      <g id="id6">
       <rect class="BoundingBox" stroke="none" fill="none" x="9456" y="12758" width="1123" height="2774"/>
       <path fill="none" stroke="rgb(75,179,204)" stroke-width="106" stroke-linejoin="round" d="M 9509,15478 L 10525,12811"/>
      </g>
     </g>
     <g class="com.sun.star.drawing.CustomShape">
      <g id="id7">
       <rect class="BoundingBox" stroke="none" fill="none" x="10142" y="12047" width="893" height="893"/>
       <path fill="rgb(75,179,204)" stroke="none" d="M 10587,12048 C 10839,12048 11031,12240 11031,12492 11031,12744 10839,12936 10587,12936 10335,12936 10143,12744 10143,12492 10143,12240 10335,12048 10587,12048 Z M 10143,12048 L 10143,12048 Z M 11033,12938 L 11033,12938 Z"/>
       <path fill="none" stroke="rgb(75,179,204)" d="M 10587,12048 C 10839,12048 11031,12240 11031,12492 11031,12744 10839,12936 10587,12936 10335,12936 10143,12744 10143,12492 10143,12240 10335,12048 10587,12048 Z"/>
       <path fill="none" stroke="rgb(75,179,204)" d="M 10143,12048 L 10143,12048 Z"/>
       <path fill="none" stroke="rgb(75,179,204)" d="M 11033,12938 L 11033,12938 Z"/>
      </g>
     </g>
     <g class="com.sun.star.drawing.CustomShape">
      <g id="id8">
       <rect class="BoundingBox" stroke="none" fill="none" x="8999" y="15222" width="893" height="893"/>
       <path fill="rgb(75,179,204)" stroke="none" d="M 9444,15223 C 9696,15223 9888,15415 9888,15667 9888,15919 9696,16111 9444,16111 9192,16111 9000,15919 9000,15667 9000,15415 9192,15223 9444,15223 Z M 9000,15223 L 9000,15223 Z M 9890,16113 L 9890,16113 Z"/>
       <path fill="none" stroke="rgb(75,179,204)" d="M 9444,15223 C 9696,15223 9888,15415 9888,15667 9888,15919 9696,16111 9444,16111 9192,16111 9000,15919 9000,15667 9000,15415 9192,15223 9444,15223 Z"/>
       <path fill="none" stroke="rgb(75,179,204)" d="M 9000,15223 L 9000,15223 Z"/>
       <path fill="none" stroke="rgb(75,179,204)" d="M 9890,16113 L 9890,16113 Z"/>
      </g>
     </g>
     <g class="com.sun.star.drawing.LineShape">
      <g id="id9">
       <rect class="BoundingBox" stroke="none" fill="none" x="11488" y="13520" width="996" height="2393"/>
       <path fill="none" stroke="rgb(75,179,204)" stroke-width="106" stroke-linejoin="round" d="M 11541,15859 L 12430,13573"/>
      </g>
     </g>
     <g class="com.sun.star.drawing.LineShape">
      <g id="id10">
       <rect class="BoundingBox" stroke="none" fill="none" x="8821" y="13774" width="742" height="2012"/>
       <path fill="none" stroke="rgb(75,179,204)" stroke-width="106" stroke-linejoin="round" d="M 9509,15732 L 8874,13827"/>
      </g>
     </g>
     <g class="com.sun.star.drawing.LineShape">
      <g id="id11">
       <rect class="BoundingBox" stroke="none" fill="none" x="10599" y="12504" width="1123" height="3409"/>
       <path fill="none" stroke="rgb(75,179,204)" stroke-width="106" stroke-linejoin="round" d="M 11668,15859 L 10652,12557"/>
      </g>
     </g>
     <g class="com.sun.star.drawing.LineShape">
      <g id="id12">
       <rect class="BoundingBox" stroke="none" fill="none" x="8821" y="13774" width="3663" height="107"/>
       <path fill="none" stroke="rgb(75,179,204)" stroke-width="106" stroke-linejoin="round" d="M 8874,13827 L 12430,13827"/>
      </g>
     </g>
     <g class="com.sun.star.drawing.LineShape">
      <g id="id13">
       <rect class="BoundingBox" stroke="none" fill="none" x="9202" y="15679" width="2647" height="107"/>
       <path fill="none" stroke="rgb(75,179,204)" stroke-width="106" stroke-linejoin="round" d="M 9255,15732 L 11795,15732"/>
      </g>
     </g>
     <g class="com.sun.star.drawing.LineShape">
      <g id="id14">
       <rect class="BoundingBox" stroke="none" fill="none" x="8821" y="13774" width="2901" height="2012"/>
       <path fill="none" stroke="rgb(75,179,204)" stroke-width="106" stroke-linejoin="round" d="M 8874,13827 L 11668,15732"/>
      </g>
     </g>
     <g class="com.sun.star.drawing.LineShape">
      <g id="id15">
       <rect class="BoundingBox" stroke="none" fill="none" x="9329" y="13774" width="3155" height="2012"/>
       <path fill="none" stroke="rgb(75,179,204)" stroke-width="106" stroke-linejoin="round" d="M 9382,15732 L 12430,13827"/>
      </g>
     </g>
     <g class="com.sun.star.drawing.LineShape">
      <g id="id16">
       <rect class="BoundingBox" stroke="none" fill="none" x="8822" y="12377" width="1884" height="1505"/>
       <path fill="none" stroke="rgb(75,179,204)" stroke-width="106" stroke-linejoin="round" d="M 10652,12430 L 8875,13828"/>
      </g>
     </g>
     <g class="com.sun.star.drawing.LineShape">
      <g id="id17">
       <rect class="BoundingBox" stroke="none" fill="none" x="10600" y="12377" width="1884" height="1631"/>
       <path fill="none" stroke="rgb(75,179,204)" stroke-width="106" stroke-linejoin="round" d="M 10653,12430 L 12430,13954"/>
      </g>
     </g>
    </g>
   </g>
  </g>
 </g>
</svg>