<?xml version="1.0" encoding="utf-8"?>
<!-- Generator: Adobe Illustrator 19.2.1, SVG Export Plug-In . SVG Version: 6.00 Build 0)  -->
<svg version="1.1" id="layer" xmlns="http://www.w3.org/2000/svg" xmlns:xlink="http://www.w3.org/1999/xlink" x="0px" y="0px"
	 viewBox="0 0 652 652" style="enable-background:new 0 0 652 652;" xml:space="preserve">
<style type="text/css">
	.st0{fill:#179C7D;}
	.st1{fill:#FFFFFF;}
</style>
<g>
	<path class="st0" d="M27,374.4c23.1-11.9,57-31.2,97.3-59.3v-9.5c-35.4,23.2-71.4,41.8-97.3,54.1V374.4z"/>
	<path class="st0" d="M27,346.2c25.8-10.5,61.8-26.7,97.3-47.8v-4.7c-33.4,16.6-68,26.9-97.3,33.4V346.2z"/>
	<path class="st0" d="M124.3,374.4v-47.5c-22.1,18.7-44.1,34.8-62.5,47.5H124.3z"/>
	<path class="st0" d="M49.3,374.4c17.5-10.4,38.7-23.9,59.9-39.8c4.9-3.7,10-7.5,15.1-11.4v-5.9c-31.3,23.5-63.3,43-88.2,57.1H49.3z
		"/>
	<path class="st0" d="M27,320.1c28.5-5,63.3-14,97.3-30.2v-5.3C90,300,55.7,306.6,27,308.9V320.1z"/>
	<path class="st0" d="M27,276.7v27.2c2.1-0.1,4.3-0.3,6.5-0.5c23.7-1.8,55.9-6,90.8-21.1v-5.7H27z"/>
	<g>
		<g>
			<path class="st1" d="M27,303.9v5c28.7-2.3,63-8.8,97.3-24.2v-2.3c-34.8,15.1-67.1,19.2-90.8,21.1C31.3,303.6,29.1,303.8,27,303.9
				z"/>
		</g>
	</g>
	<g>
		<g>
			<path class="st1" d="M27,327c29.3-6.5,63.9-16.8,97.3-33.4V290c-34,16.2-68.8,25.2-97.3,30.2V327z"/>
		</g>
	</g>
	<g>
		<g>
			<path class="st1" d="M27,359.7c25.9-12.3,61.9-30.9,97.3-54.1v-7.3c-35.5,21.1-71.5,37.3-97.3,47.8V359.7z"/>
		</g>
	</g>
	<g>
		<g>
			<path class="st1" d="M49.3,374.4h12.4c18.4-12.7,40.4-28.9,62.5-47.5v-3.7c-5.1,3.9-10.1,7.7-15.1,11.4
				C88.1,350.5,66.8,364.1,49.3,374.4z"/>
		</g>
	</g>
	<g>
		<g>
			<path class="st1" d="M27,374.4h9.1c25-14.1,56.9-33.6,88.2-57.1v-2.3C84,343.2,50.1,362.5,27,374.4L27,374.4z"/>
		</g>
	</g>
</g>
<path d="M598.7,374.4h12.5v-17.7c0-6.9,0-19.6,10.2-19.6c2.2,0,4.5,0.4,5.6,1v-12.6c-1.3-0.4-2.6-0.4-3.8-0.4
	c-7.5,0-12.6,7.6-13.2,12h-0.2v-10.9h-11.1L598.7,374.4L598.7,374.4z M586.2,361.5c-4.7,2.6-9.9,4.9-16,4.9
	c-7.7,0-13.2-4.4-13.7-12.2h33.2c0-16.8-5-29-22.9-29c-14.9,0-22.3,11.5-22.3,25.4c0,15.8,9.2,24.9,25.1,24.9
	c6.7,0,11.9-1.3,16.5-3.8L586.2,361.5L586.2,361.5z M556.5,345.6c0.6-6.4,4.1-11.3,11.1-11.3s9.8,5.2,10.2,11.3H556.5z M516.5,374.4
	H529v-39h10.9v-9.1H529v-6c0-3.7,1.3-7.4,5.5-7.4c2.7,0,4.3,1,5.4,1.7l1-10.4c-2.4-0.6-6-1-9.2-1c-9.9,0-15.3,6.7-15.3,16.3v6.7
	h-9.2v9.1h9.2L516.5,374.4L516.5,374.4z M466.7,349.2c0-7.2,3.9-14.3,12-14.3c8.2,0,12.1,6.9,12.1,14.3c0,8-2.5,16.6-12.1,16.6
	C469.3,365.8,466.7,357.1,466.7,349.2 M453.7,350.7c0,13.8,9.3,24.8,25.1,24.8c16,0,25.2-11,25.2-24.8c0-15.9-10.9-25.5-25.2-25.5
	C464.6,325.2,453.7,334.8,453.7,350.7 M401.6,374.4h12.5v-23.5c0-6.2,2-16,11-16c8,0,8.1,7.9,8.1,13.8v25.7h12.5V344
	c0-10.8-4.9-18.9-16.3-18.9c-6.5,0-12,3-15.1,7.7h-0.2v-28.5h-12.5V374.4z M344.5,374.4H357v-23.5c0-6.2,2-16,11-16
	c8,0,8.1,7.9,8.1,13.8v25.7h12.5V344c0-10.8-5-18.9-16.3-18.9c-6.5,0-11.9,2.2-15.8,7.7h-0.2v-6.5h-11.8V374.4z M331.6,326.3h-12.5
	v23.5c0,6.2-2,16-11,16c-8,0-8.1-7.9-8.1-13.8v-25.7h-12.5v30.4c0,10.8,5,18.9,16.3,18.9c6.5,0,12-3,15.8-7.7h0.2v6.5h11.9
	L331.6,326.3L331.6,326.3z M246.2,360.5c0-7.4,8.3-8.3,13.9-8.3h5.4c0,3.7-0.6,7.2-2.6,9.9c-2,2.6-4.9,4.3-8.8,4.3
	C249.7,366.4,246.2,364.6,246.2,360.5 M239.9,339.6c4.2-3.2,9.5-5.2,14.9-5.2c7.4,0,10.8,2.6,10.8,10.4h-6.9
	c-5.2,0-11.4,0.5-16.2,2.8c-4.8,2.3-8.2,6.5-8.2,13.7c0,9.1,8.3,14.3,16.8,14.3c5.7,0,12-3,14.8-8.3h0.2c0.1,1.5,0.1,4.7,0.6,7.2h11
	c-0.3-3.7-0.5-7.1-0.6-10.7c-0.1-3.5-0.2-7.2-0.2-12v-6.2c0-14.2-6.1-20.3-20.7-20.3c-5.3,0-11.9,1.4-16.7,3.6L239.9,339.6z
	 M202.3,374.4h12.5v-17.7c0-6.9,0-19.6,10.2-19.6c2.2,0,4.5,0.4,5.6,1v-12.6c-1.3-0.4-2.6-0.4-3.8-0.4c-7.5,0-12.6,7.6-13.2,12h-0.2
	v-10.9h-11.1V374.4z M157.1,374.4h13.1v-28.6h22v-10.3h-22v-16.1h23.2v-10.3h-36.2V374.4z"/>
</svg>
